<svg xmlns="http://www.w3.org/2000/svg" viewBox="0 0 215.52 133.45"><defs><style>.cls-1{fill:#231f20;}</style></defs><title>backarrow</title><g id="Layer_2" data-name="Layer 2"><g id="Layer_1-2" data-name="Layer 1"><path class="cls-1" d="M148.79,130l-19.36-.19-.2-44.48-101-.58L46.4,108,46,133.45,0,75.35,46.59,17.83,46.21,44.1,29.53,65l99.7.19L129.81,38q0-15.34,12.75-26.66A43.76,43.76,0,0,1,172.57,0a41.17,41.17,0,0,1,30.49,12.66q12.45,12.65,12.46,31.06a41.5,41.5,0,0,1-11.7,29.72,37.73,37.73,0,0,1-28.38,12.27H149.37ZM149,65.58l24.55.19a20.42,20.42,0,0,0,15.24-6.71A22.5,22.5,0,0,0,195.19,43a22.31,22.31,0,0,0-6.32-16,20.67,20.67,0,0,0-15.53-6.62q-8.25,0-16.21,5.66t-7.95,11.79Z"/></g></g></svg>