<?xml version="1.0" encoding="utf-8"?>
<!-- Generator: Adobe Illustrator 23.0.1, SVG Export Plug-In . SVG Version: 6.00 Build 0)  -->
<svg version="1.1" id="Layer_1" xmlns="http://www.w3.org/2000/svg" xmlns:xlink="http://www.w3.org/1999/xlink" x="0px" y="0px"
	 viewBox="0 0 34.2 32.5" style="enable-background:new 0 0 34.2 32.5;" xml:space="preserve">
<style type="text/css">
	.st0{fill:#FFFFFF;}
</style>
<title>home button</title>
<g>
	<g id="Layer_1-2">
		<path class="st0" d="M0,12.4L17.1,0l17.1,12.4v20.1H0V12.4z M2.7,30.3h28.9v-17L17.1,2.8L2.7,13.3V30.3z"/>
		<path class="st0" d="M21.4,27.5h-2.2v-5.1L7.6,22.4L9.7,25v2.9l-5.3-6.6l5.3-6.6v3l-1.9,2.4h11.4l0-3.1c0-1.2,0.6-2.3,1.5-3
			c0.9-0.9,2.2-1.3,3.4-1.3c1.3,0,2.6,0.5,3.5,1.4c0.9,0.9,1.5,2.2,1.4,3.6c0,1.3-0.5,2.5-1.3,3.4c-0.8,0.9-2,1.4-3.2,1.4h-3
			L21.4,27.5z M21.4,20.2h2.8c0.7,0,1.3-0.3,1.8-0.8c0.5-0.5,0.7-1.2,0.7-1.9c0-0.7-0.3-1.3-0.7-1.8c-0.5-0.5-1.1-0.8-1.8-0.7
			c-0.7,0-1.3,0.2-1.9,0.6c-0.5,0.3-0.8,0.8-0.9,1.4L21.4,20.2z"/>
	</g>
</g>
</svg>
