<svg xmlns="http://www.w3.org/2000/svg" viewBox="0 0 34.22 32.55"><defs><style>.cls-1{fill:#fff;}</style></defs><title>home button</title><g id="Layer_2" data-name="Layer 2"><g id="Layer_1-2" data-name="Layer 1"><path class="cls-1" d="M0,12.42,17.11,0,34.22,12.42V32.55H0ZM2.7,30.29H31.58v-17L17.11,2.78,2.7,13.3Z"/><path class="cls-1" d="M21.41,27.54l-2.22,0,0-5.1L7.59,22.35,9.67,25l0,2.92L4.36,21.28l5.34-6.6,0,3-1.91,2.4,11.43,0L19.23,17a4,4,0,0,1,1.46-3,5,5,0,0,1,3.44-1.3,4.69,4.69,0,0,1,3.49,1.45,4.85,4.85,0,0,1,1.43,3.56,4.75,4.75,0,0,1-1.34,3.41,4.33,4.33,0,0,1-3.25,1.4h-3Zm0-7.38,2.81,0A2.34,2.34,0,0,0,26,19.41a2.57,2.57,0,0,0,.73-1.85A2.54,2.54,0,0,0,26,15.73,2.35,2.35,0,0,0,24.22,15a3.21,3.21,0,0,0-1.86.65A1.74,1.74,0,0,0,21.45,17Z"/></g></g></svg>